<svg xmlns="http://www.w3.org/2000/svg" width="512" height="512" viewBox="0 0 512 512">
 <defs><linearGradient id="pcb" x2="1" y2="1"><stop stop-color="#295e55"/><stop offset="1" stop-color="#173d39"/></linearGradient><linearGradient id="chip" x2="1" y2="1"><stop stop-color="#3f4a48"/><stop offset="1" stop-color="#172825"/></linearGradient><pattern id="grid" width="32" height="32" patternUnits="userSpaceOnUse"><path d="M32 0H0V32" fill="none" stroke="#92af86" stroke-opacity=".08"/></pattern></defs>
 <rect width="512" height="512" rx="12" fill="url(#pcb)"/><rect width="512" height="512" fill="url(#grid)"/>
 <g fill="none" stroke="#afad73" stroke-width="5" opacity=".85"><path d="M-10 64H88L136 112V168M-10 96H64L104 136V200H162M512 70H420L370 120V167M512 104H444L402 146V208H351M0 434H90L152 372V342M0 400H65L114 351V306H163M512 432H422L358 368V344M512 395H449L398 344V303H350M239 0V106H205V157M278 0V111H305V167M238 512V400H205V350M277 512V397H305V350"/></g>
 <g fill="#c4c3a8" stroke="#59685a" stroke-width="2"><path d="M144 178h28v18h-28zm0 34h28v18h-28zm0 34h28v18h-28zm0 34h28v18h-28zm0 34h28v18h-28zm196-136h28v18h-28zm0 34h28v18h-28zm0 34h28v18h-28zm0 34h28v18h-28zm0 34h28v18h-28zM178 144h18v28h-18zm34 0h18v28h-18zm34 0h18v28h-18zm34 0h18v28h-18zm34 0h18v28h-18zM178 340h18v28h-18zm34 0h18v28h-18zm34 0h18v28h-18zm34 0h18v28h-18zm34 0h18v28h-18z"/></g>
 <rect x="168" y="168" width="180" height="180" rx="9" fill="#112824" opacity=".3" transform="translate(5 7)"/><rect x="168" y="168" width="176" height="176" rx="8" fill="url(#chip)" stroke="#7d8b7a" stroke-width="2"/><circle cx="187" cy="187" r="5" fill="#91a18b"/>
 <g font-family="Arial,sans-serif" fill="#bac6af" text-anchor="middle"><text x="256" y="251" font-size="23" letter-spacing="4">VISION</text><text x="256" y="279" font-size="12" letter-spacing="3">SAMPLE 01</text></g>
 <g fill="#dad4b0" stroke="#557362" stroke-width="6"><circle cx="56" cy="54" r="13"/><circle cx="459" cy="54" r="13"/><circle cx="55" cy="458" r="13"/><circle cx="458" cy="458" r="13"/></g>
 <g fill="#adae91"><rect x="61" y="222" width="46" height="25" rx="3"/><rect x="61" y="270" width="46" height="25" rx="3"/><rect x="408" y="222" width="46" height="25" rx="3"/><rect x="408" y="270" width="46" height="25" rx="3"/></g>
 <path d="M77 154l42 22 14 20 33 14" fill="none" stroke="#122924" stroke-width="12" stroke-linecap="round"/><path d="M77 150l42 23 14 18 33 16" fill="none" stroke="#edd4a5" stroke-width="5" stroke-linecap="round"/><path d="M79 147l37 23 18 18 29 14" fill="none" stroke="#f5eccf" stroke-width="1.5"/>
</svg>
